<?xml version="1.0" standalone="no"?>
<!DOCTYPE svg PUBLIC "-//W3C//DTD SVG 20010904//EN"
 "http://www.w3.org/TR/2001/REC-SVG-20010904/DTD/svg10.dtd">
<svg version="1.0" xmlns="http://www.w3.org/2000/svg"
 width="1058.000000pt" height="1058.000000pt" viewBox="0 0 1058.000000 1058.000000"
 preserveAspectRatio="xMidYMid meet">
<metadata>
Created by potrace 1.14, written by Peter Selinger 2001-2017
</metadata>
<g transform="translate(0.000000,1058.000000) scale(0.100000,-0.100000)"
fill="#000000" stroke="none">
<path d="M1018 10573 c7 -3 16 -2 19 1 4 3 -2 6 -13 5 -11 0 -14 -3 -6 -6z"/>
<path d="M1308 10573 c6 -2 18 -2 25 0 6 3 1 5 -13 5 -14 0 -19 -2 -12 -5z"/>
<path d="M1468 10573 c7 -3 16 -2 19 1 4 3 -2 6 -13 5 -11 0 -14 -3 -6 -6z"/>
<path d="M8870 10544 c-98 -22 -154 -34 -190 -38 -9 -1 -20 -5 -27 -9 -6 -4
-28 -9 -49 -12 -22 -2 -113 -20 -204 -40 -91 -19 -176 -37 -190 -40 -20 -3
-202 -42 -285 -61 -11 -2 -33 -7 -50 -9 -16 -3 -38 -8 -47 -11 -24 -7 -59 -15
-88 -19 -14 -2 -38 -7 -55 -11 -16 -4 -38 -7 -47 -8 -10 0 -18 -4 -18 -9 0 -4
-3 -6 -7 -4 -5 3 -46 -3 -93 -13 -47 -11 -96 -21 -110 -24 -24 -4 -454 -96
-475 -100 -16 -4 -78 -17 -100 -21 -11 -2 -20 -4 -20 -6 0 -1 -11 -2 -25 -3
-14 -1 -34 -5 -45 -9 -11 -3 -31 -8 -45 -11 -14 -3 -35 -7 -46 -10 -12 -2 -37
-7 -55 -10 -19 -3 -43 -8 -54 -10 -35 -9 -159 -36 -185 -41 -14 -3 -34 -7 -45
-9 -26 -5 -165 -36 -186 -41 -9 -2 -33 -6 -54 -9 -20 -4 -41 -8 -45 -11 -10
-6 -78 -18 -107 -19 -13 0 -23 -3 -23 -6 0 -3 -8 -6 -17 -7 -10 -1 -94 -18
-188 -38 -93 -20 -181 -39 -195 -41 -20 -4 -62 -12 -90 -19 -3 -1 -31 -7 -62
-14 l-58 -12 0 -2280 0 -2279 53 0 c281 -3 4799 -1 4802 2 1 1 -3 32 -11 68
-8 36 -16 79 -19 95 -3 17 -8 37 -10 45 -2 8 -7 31 -11 50 -3 19 -7 40 -8 45
-1 6 -5 16 -9 23 -5 6 -6 12 -4 12 2 0 -4 39 -15 88 -10 48 -21 101 -24 117
-2 17 -7 40 -9 52 -3 13 -6 25 -6 28 0 2 -7 31 -14 62 -17 72 -42 193 -66 313
-5 30 -14 69 -19 85 -5 17 -11 44 -13 60 -3 17 -8 41 -11 55 -3 14 -8 36 -10
50 -3 14 -8 36 -11 50 -4 14 -8 36 -10 50 -2 14 -4 25 -5 25 -2 0 -5 13 -13
60 -12 62 -18 90 -23 107 -3 10 -7 30 -10 45 -2 16 -7 39 -9 53 -6 27 -6 27
-30 135 -9 39 -18 81 -20 95 -3 14 -6 32 -8 40 -2 8 -7 33 -12 55 -4 22 -10
49 -12 60 -3 11 -6 30 -8 42 -2 12 -5 26 -8 30 -3 5 -8 29 -12 53 -8 51 -13
75 -15 75 -2 0 -7 32 -14 77 -2 15 -6 31 -9 35 -3 5 -8 28 -12 53 -4 25 -8 47
-11 51 -2 3 -6 21 -9 40 -2 19 -9 52 -14 74 -5 22 -14 63 -20 90 -6 28 -13 61
-16 75 -3 14 -7 36 -10 50 -13 67 -15 77 -32 150 -3 14 -6 34 -8 45 -1 11 -5
27 -8 35 -3 8 -19 87 -37 175 -17 88 -34 167 -37 175 -3 8 -7 24 -8 35 -1 11
-5 32 -8 46 -4 14 -9 44 -13 65 -3 21 -8 42 -10 46 -2 3 -11 39 -19 80 -8 40
-17 84 -20 98 -3 14 -7 36 -10 50 -11 55 -14 72 -20 90 -3 10 -8 31 -10 46 -2
16 -14 72 -25 124 -26 119 -30 139 -35 170 -3 14 -14 68 -25 120 -12 52 -23
105 -25 118 -3 12 -7 32 -10 45 -3 12 -10 45 -15 72 -6 28 -13 61 -16 75 -2
14 -8 43 -14 65 -11 47 -41 192 -41 200 -1 2 -7 31 -15 64 -7 33 -16 75 -19
92 -3 18 -7 35 -9 38 -2 3 -7 28 -10 55 -4 27 -9 53 -11 56 -2 4 -7 22 -10 41
-4 19 -8 41 -10 49 -2 8 -4 23 -4 33 -1 22 -28 21 -161 -9z"/>
<path d="M525 10474 c-5 -1 -23 -5 -38 -8 -37 -9 -62 -60 -53 -110 9 -46 53
-76 99 -69 44 7 57 20 57 60 0 38 -19 51 -53 35 -22 -10 -22 -10 -2 -18 27
-10 36 -26 23 -41 -13 -16 -68 -17 -68 -2 0 5 -4 7 -10 4 -5 -3 -10 3 -10 14
0 11 -5 23 -10 26 -6 4 -7 12 -3 18 4 7 8 18 9 24 6 37 64 53 104 28 8 -5 11
-1 8 10 -3 18 -34 35 -53 29z"/>
<path d="M821 10467 c-6 -6 -11 -7 -11 -3 0 5 -7 3 -15 -4 -33 -27 -9 -110 31
-110 12 0 12 -4 4 -21 -7 -11 -18 -18 -25 -15 -8 3 -17 1 -20 -4 -8 -13 26
-28 50 -23 11 2 29 4 40 5 18 0 20 7 20 63 0 35 -3 66 -7 70 -4 4 -4 13 -2 20
7 18 -50 37 -65 22z m0 -60 c-8 -8 -11 -5 -11 9 0 27 14 41 18 19 2 -9 -1 -22
-7 -28z m52 6 c5 -26 4 -26 -9 -9 -7 10 -11 23 -8 27 8 14 11 11 17 -18z m-33
-27 c0 -11 -19 -15 -25 -6 -3 5 1 10 9 10 9 0 16 -2 16 -4z m22 -58 c-8 -8 -9
-4 -5 13 4 13 8 18 11 10 2 -7 -1 -18 -6 -23z"/>
<path d="M934 10458 c-6 -9 2 -11 29 -9 23 3 22 -1 -12 -56 -16 -26 -27 -51
-24 -56 3 -5 20 -7 39 -5 21 2 35 -1 38 -9 4 -9 -6 -13 -37 -13 -31 0 -38 -3
-27 -10 26 -17 90 -12 97 8 4 9 11 20 16 23 5 4 2 18 -8 33 -14 21 -15 29 -5
41 11 13 10 20 0 41 -12 21 -20 24 -57 22 -25 -1 -46 -5 -49 -10z m72 -45 c-2
-9 -10 -17 -19 -19 -13 -2 -14 1 -4 17 15 23 26 25 23 2z m-12 -39 c25 -10 19
-19 -14 -20 -25 -1 -28 1 -19 12 13 16 12 16 33 8z"/>
<path d="M1103 10463 c-27 -10 -11 -18 27 -15 37 4 40 2 40 -22 0 -25 -8 -31
-39 -27 -7 2 -11 -3 -9 -10 2 -7 12 -13 22 -15 10 -1 23 -7 28 -12 12 -12 0
-55 -12 -47 -5 3 -11 1 -15 -4 -4 -7 -15 -7 -30 -1 -19 7 -25 6 -25 -5 0 -19
49 -23 83 -7 20 10 27 21 27 42 0 16 -6 30 -12 33 -10 3 -10 9 0 26 16 27 15
36 -4 55 -15 15 -55 20 -81 9z"/>
<path d="M632 10404 c1 -9 9 -19 16 -22 9 -3 13 2 10 14 -1 9 -9 19 -16 22 -9
3 -13 -2 -10 -14z"/>
<path d="M630 10305 c0 -8 7 -15 15 -15 8 0 15 7 15 15 0 8 -7 15 -15 15 -8 0
-15 -7 -15 -15z"/>
<path d="M938 10178 c-27 -9 -33 -36 -14 -66 4 -7 0 -22 -8 -34 -11 -15 -12
-26 -5 -40 5 -10 6 -18 2 -18 -4 0 -1 -5 7 -10 18 -12 111 -10 104 2 -3 4 0
16 6 27 7 15 6 23 -6 35 -8 9 -12 20 -9 26 33 53 -13 99 -77 78z m22 -33 c-7
-9 -15 -13 -17 -11 -7 7 7 26 19 26 6 0 6 -6 -2 -15z m27 -15 c-1 -13 -8 -20
-21 -20 -18 0 -19 1 -1 20 10 11 19 20 21 20 1 0 2 -9 1 -20z m-22 -59 c-3 -6
-11 -8 -17 -5 -6 4 -5 9 3 15 16 10 23 4 14 -10z m19 -35 c-3 -8 -12 -12 -21
-9 -12 5 -12 7 -1 14 20 13 28 11 22 -5z"/>
<path d="M441 10089 l1 -89 43 0 c27 0 51 7 66 19 22 17 23 22 12 50 -6 17 -9
39 -6 50 3 10 0 28 -6 39 -9 17 -21 21 -61 20 l-50 0 1 -89z m79 61 c13 0 17
-5 13 -20 -4 -14 -14 -20 -34 -20 -25 0 -29 4 -29 26 0 20 4 25 16 20 9 -3 24
-6 34 -6z m16 -82 c8 -26 -3 -38 -37 -38 -25 0 -29 4 -29 28 0 25 4 29 30 29
20 0 32 -6 36 -19z"/>
<path d="M773 10173 c-23 -9 -13 -25 12 -21 23 5 25 3 25 -37 0 -32 -6 -48
-26 -68 -14 -14 -23 -30 -20 -35 3 -5 30 -10 60 -11 45 -1 54 2 50 14 -4 8
-12 15 -20 15 -23 0 -21 44 2 67 43 43 -21 102 -83 76z m77 -43 c0 -5 -5 -10
-11 -10 -5 0 -7 5 -4 10 3 6 8 10 11 10 2 0 4 -4 4 -10z"/>
<path d="M1071 10158 c-5 -14 -5 -28 2 -36 8 -10 7 -19 -1 -33 -8 -12 -10 -33
-6 -53 5 -32 8 -33 53 -34 42 -1 49 1 60 24 9 21 9 31 -2 48 -10 15 -11 28 -3
48 13 38 -6 58 -56 58 -31 0 -40 -4 -47 -22z m35 -25 c-10 -10 -19 5 -10 18 6
11 8 11 12 0 2 -7 1 -15 -2 -18z m29 -12 c-3 -12 -11 -19 -16 -16 -5 4 -5 14
2 26 13 26 23 18 14 -10z m-25 -47 c0 -8 -5 -12 -10 -9 -6 4 -8 11 -5 16 9 14
15 11 15 -7z m27 -39 c0 -10 -6 -14 -14 -10 -8 3 -18 5 -21 6 -4 0 2 4 13 9
11 5 20 9 21 9 0 1 1 -6 1 -14z"/>
<path d="M623 10133 c-18 -7 -16 -40 2 -40 9 0 15 10 15 24 0 13 -1 23 -2 22
-2 0 -9 -3 -15 -6z"/>
<path d="M610 10021 c0 -12 6 -21 16 -21 9 0 14 7 12 17 -5 25 -28 28 -28 4z"/>
<path d="M4305 8649 c-16 -5 -43 -11 -60 -14 -42 -7 -74 -13 -93 -19 -9 -3
-33 -8 -52 -11 -19 -3 -51 -10 -71 -15 -19 -6 -51 -12 -70 -14 -19 -3 -34 -5
-34 -6 0 -2 -20 -6 -65 -14 -19 -4 -50 -11 -67 -16 -18 -4 -33 -6 -33 -3 0 3
-7 0 -15 -7 -8 -7 -15 -10 -15 -7 0 2 -28 -2 -62 -9 -35 -8 -74 -16 -88 -19
-14 -2 -36 -7 -50 -10 -14 -3 -36 -7 -50 -10 -14 -3 -36 -7 -50 -10 -14 -4
-38 -8 -55 -11 -16 -3 -37 -7 -45 -10 -8 -3 -26 -8 -40 -10 -14 -2 -43 -8 -65
-14 -22 -5 -53 -12 -70 -15 -25 -4 -220 -45 -290 -61 -11 -2 -36 -7 -55 -10
-19 -3 -42 -8 -50 -11 -8 -3 -26 -7 -40 -9 -14 -2 -45 -8 -70 -13 -25 -6 -56
-13 -70 -15 -14 -3 -36 -8 -50 -11 -14 -3 -38 -8 -54 -11 -16 -2 -32 -6 -35
-8 -3 -2 -24 -7 -46 -10 -22 -4 -56 -11 -75 -16 -19 -5 -51 -12 -70 -15 -19
-3 -55 -11 -80 -16 -25 -6 -56 -12 -70 -14 -14 -2 -51 -11 -83 -18 -68 -17
-66 -17 -69 -18 -2 -1 -16 -3 -33 -4 -16 -1 -48 -7 -70 -13 -37 -10 -65 -16
-120 -27 -11 -2 -31 -6 -45 -9 -14 -4 -38 -9 -54 -12 -16 -3 -91 -18 -165 -35
-75 -16 -147 -32 -161 -34 -14 -3 -36 -7 -50 -10 -14 -3 -36 -8 -50 -11 -14
-2 -54 -11 -90 -19 -36 -8 -78 -16 -95 -19 -16 -3 -41 -8 -55 -12 -14 -3 -35
-7 -47 -9 -11 -2 -29 -6 -40 -9 -10 -3 -34 -8 -53 -11 -19 -3 -43 -8 -52 -11
-17 -5 -43 -11 -93 -20 -43 -7 -207 -44 -227 -50 -17 -5 -20 -38 -5 -74 3 -8
8 -28 10 -45 3 -16 8 -43 12 -60 4 -16 8 -39 9 -50 1 -12 6 -26 10 -33 4 -7 5
-12 2 -12 -2 0 0 -15 5 -32 5 -18 11 -46 14 -63 4 -31 5 -36 25 -120 6 -27 13
-61 15 -75 2 -14 7 -36 10 -50 3 -14 8 -35 11 -48 2 -12 20 -98 40 -190 20
-92 37 -176 40 -187 2 -11 7 -33 10 -50 4 -16 8 -37 9 -45 0 -9 5 -21 9 -28 4
-7 6 -16 3 -19 -3 -3 -2 -16 4 -30 5 -13 11 -42 14 -65 3 -22 7 -44 10 -48 3
-5 8 -23 10 -42 3 -18 7 -42 10 -53 4 -21 74 -350 80 -375 2 -8 17 -82 34
-165 17 -82 34 -161 37 -175 3 -14 7 -34 9 -45 2 -11 6 -31 9 -45 12 -55 17
-76 20 -95 9 -42 38 -181 43 -200 2 -11 6 -33 9 -49 2 -16 6 -31 8 -33 6 -6
3375 -5 3385 1 5 3 8 727 7 1712 -1 1509 -3 1707 -16 1709 -8 1 -28 -2 -45 -6z"/>
<path d="M1175 4285 c32 -149 66 -313 70 -340 2 -11 6 -30 9 -42 4 -13 8 -33
11 -45 13 -60 16 -75 20 -98 3 -14 8 -38 12 -55 4 -16 8 -38 9 -47 1 -10 3
-19 4 -20 1 -2 4 -12 5 -23 2 -11 10 -54 19 -95 18 -79 23 -105 30 -142 2 -13
8 -41 14 -63 6 -22 13 -53 16 -70 2 -16 14 -75 27 -130 12 -55 22 -110 23
-122 1 -13 5 -23 9 -23 4 0 7 -6 6 -12 -1 -7 1 -31 6 -53 10 -54 11 -58 37
-175 6 -30 12 -59 13 -65 1 -5 3 -13 5 -17 1 -5 3 -16 4 -25 1 -10 6 -34 11
-53 4 -19 9 -44 11 -55 2 -11 15 -74 29 -140 15 -66 29 -131 31 -145 3 -14 10
-45 15 -70 14 -60 20 -91 23 -115 1 -12 6 -27 10 -34 4 -7 5 -15 2 -18 -3 -3
-1 -13 4 -23 5 -9 11 -32 14 -51 3 -19 10 -56 16 -84 6 -27 13 -66 16 -85 3
-19 8 -38 10 -41 2 -4 6 -24 10 -45 3 -22 14 -75 24 -119 11 -44 26 -114 34
-155 13 -63 25 -120 61 -281 4 -19 16 -86 20 -114 2 -11 4 -20 5 -20 3 0 11
-39 17 -80 3 -22 9 -42 14 -43 5 -2 7 -8 4 -12 -3 -5 0 -30 6 -57 6 -26 13
-61 15 -76 2 -16 6 -32 9 -37 3 -4 7 -25 10 -46 4 -22 8 -47 11 -56 3 -10 8
-30 10 -45 3 -15 12 -59 20 -98 27 -121 43 -199 47 -225 2 -14 7 -32 11 -41 4
-9 8 -33 9 -53 1 -20 5 -36 8 -36 3 0 6 -6 7 -12 2 -22 8 -47 13 -52 3 -4 140
22 212 40 32 8 54 12 88 18 19 3 45 8 59 11 14 3 34 8 45 10 11 3 31 7 45 10
39 9 86 18 175 35 33 6 67 14 75 17 8 3 27 7 41 9 14 1 54 9 90 18 35 8 75 17
89 20 14 2 57 11 95 20 39 9 81 18 95 20 14 3 36 8 50 11 14 3 38 8 54 11 16
2 32 7 35 9 4 2 25 6 47 9 22 4 51 9 64 12 14 3 34 7 45 9 11 2 20 4 20 5 0 1
13 4 65 14 14 2 25 5 25 6 0 1 11 3 25 5 20 3 156 31 295 61 11 3 43 9 70 15
28 6 55 12 60 13 18 4 119 26 140 29 11 2 31 7 45 10 14 3 50 11 81 17 l57 11
-2 1912 -1 1912 -1597 0 c-1593 0 -1597 0 -1593 -20z"/>
<path d="M5300 4302 c-7 -3 -10 -606 -10 -1814 l0 -1810 28 5 c15 3 39 8 55
11 15 3 37 8 50 10 12 3 67 14 122 26 55 12 111 24 125 26 36 7 212 44 235 50
11 3 31 7 45 10 14 2 39 7 55 11 17 4 32 7 35 8 3 0 21 4 40 8 37 7 65 14 103
22 12 3 37 8 56 11 18 3 41 7 50 9 66 16 201 46 226 50 17 3 40 7 53 10 35 8
63 14 117 25 78 16 80 16 260 55 94 20 181 38 195 40 14 2 25 4 25 5 0 2 41
11 115 24 8 2 26 6 40 9 14 4 37 9 53 12 26 5 50 10 95 20 12 3 30 7 41 9 10
2 35 7 56 10 20 4 40 8 44 10 3 2 24 7 46 10 22 4 57 11 78 17 21 5 54 12 74
15 20 2 60 11 90 20 30 9 57 13 60 10 4 -3 11 -2 17 3 6 5 27 11 46 14 43 7
87 15 120 23 29 7 55 12 90 19 102 20 185 37 200 42 8 3 25 7 38 9 12 1 73 14
135 28 62 14 123 27 137 30 14 2 45 9 70 15 25 5 61 13 80 16 19 3 42 8 50 10
8 2 26 6 40 9 14 3 36 7 50 10 14 3 48 10 75 16 83 17 87 18 160 34 39 8 82
17 95 20 14 3 36 8 50 11 14 3 40 8 59 11 18 3 43 8 55 11 11 2 37 8 56 13 19
5 45 11 56 13 12 3 38 8 59 11 20 4 40 8 44 10 3 2 22 7 41 10 120 20 129 23
125 44 -2 9 -8 37 -14 62 -5 24 -8 46 -6 49 3 2 0 10 -6 17 -6 8 -9 20 -6 28
3 8 3 17 -1 20 -6 7 -8 12 -18 66 -9 51 -12 65 -14 65 -1 0 -3 11 -6 25 -9 48
-35 176 -55 265 -12 50 -23 104 -26 120 -2 17 -11 57 -18 89 -8 33 -12 63 -9
68 3 4 1 8 -3 8 -5 0 -9 8 -10 18 -1 16 -6 42 -16 87 -11 46 -39 182 -43 205
-4 23 -26 127 -41 190 -3 14 -7 32 -8 40 -6 37 -44 217 -49 230 -3 8 -7 29
-10 45 -8 50 -16 89 -23 115 -8 33 -10 40 -17 75 -8 43 -24 120 -25 123 -1 1
-1 3 -2 5 -1 5 -7 33 -13 61 -3 16 -10 52 -16 80 -6 28 -12 62 -15 76 -4 23
-17 87 -20 100 -6 25 -26 120 -31 140 -3 14 -8 39 -10 56 -2 17 -10 49 -18 70
l-13 39 -2016 0 c-1109 0 -2021 -1 -2027 -3z"/>
</g>
</svg>
