<svg xmlns:dc="http://purl.org/dc/elements/1.1/" xmlns:cc="http://creativecommons.org/ns#" xmlns:rdf="http://www.w3.org/1999/02/22-rdf-syntax-ns#" xmlns:svg="http://www.w3.org/2000/svg" xmlns="http://www.w3.org/2000/svg" xmlns:sodipodi="http://sodipodi.sourceforge.net/DTD/sodipodi-0.dtd" xmlns:inkscape="http://www.inkscape.org/namespaces/inkscape" version="1.1" id="svg2" xml:space="preserve" sodipodi:docname="PSA LOGO FOR WEBSITE_RGB.ai" viewBox="36.22 41.67 927.5 352.97"><metadata id="metadata8"><rdf:RDF><cc:Work rdf:about=""><dc:format>image/svg+xml</dc:format><dc:type rdf:resource="http://purl.org/dc/dcmitype/StillImage"/></cc:Work></rdf:RDF></metadata><defs id="defs6"><clipPath clipPathUnits="userSpaceOnUse" id="clipPath34"><path d="M 0,340.157 H 737.008 V 0 H 0 Z" id="path32"/></clipPath></defs><sodipodi:namedview pagecolor="#ffffff" bordercolor="#666666" borderopacity="1" objecttolerance="10" gridtolerance="10" guidetolerance="10" inkscape:pageopacity="0" inkscape:pageshadow="2" inkscape:window-width="640" inkscape:window-height="480" id="namedview4"/><g id="g10" inkscape:groupmode="layer" inkscape:label="PSA LOGO FOR WEBSITE_RGB" transform="matrix(1.3333333,0,0,-1.3333333,0,453.54267)"><g id="g12" transform="translate(270.2324,175.2039)"><path d="m 0,0 -28.154,133.697 -93.311,-19.65 V 0 Z" style="fill:#003594;fill-opacity:1;fill-rule:nonzero;stroke:none" id="path14"/></g><g id="g16" transform="translate(125.6816,261.0437)"><path d="m 0,0 -98.506,-20.74 13.709,-65.1 H 0 Z" style="fill:#005cb9;fill-opacity:1;fill-rule:nonzero;stroke:none" id="path18"/></g><g id="g20" transform="translate(148.7675,61.4148)"><path d="M 0,0 115.451,24.32 101.469,90.705 H 0 Z" style="fill:#3e8ede;fill-opacity:1;fill-rule:nonzero;stroke:none" id="path22"/></g><g id="g24" transform="translate(45.746,152.1199)"><path d="m 0,0 22.666,-107.625 57.27,12.055 V 0 Z" style="fill:#3e8ede;fill-opacity:1;fill-rule:nonzero;stroke:none" id="path26"/></g><g id="g28"><g id="g30" clip-path="url(#clipPath34)"><g id="g36" transform="translate(329.1992,258.9187)"><path d="M 0,0 H -6.967 V -26.113 H 0 c 4.865,0 8.98,1.592 8.98,13.056 C 8.98,-1.592 4.865,0 0,0 m 0.25,-29.125 h -7.217 v -27.449 h -3.359 V 3.012 H 0.25 c 5.875,0 12.09,-1.59 12.09,-16.069 0,-14.308 -6.383,-16.068 -12.09,-16.068" style="fill:#003594;fill-opacity:1;fill-rule:nonzero;stroke:none" id="path38"/></g><g id="g40" transform="translate(356.0526,255.0691)"><path d="M 0,0 -6.295,-31.805 H 6.379 Z M 10.576,-52.725 6.967,-34.816 H -6.967 l -3.527,-17.909 h -3.694 L -1.346,6.861 H 1.68 l 12.59,-59.586 z" style="fill:#003594;fill-opacity:1;fill-rule:nonzero;stroke:none" id="path42"/></g><g id="g44" transform="translate(396.3378,204.1843)"><path d="m 0,0 c -1.764,-1.592 -4.201,-2.51 -7.391,-2.51 -3.273,0 -6.125,1.004 -7.974,2.928 -3.524,3.602 -4.196,6.947 -4.196,27.535 0,20.586 0.672,23.938 4.196,27.533 1.849,1.926 4.701,2.932 7.974,2.932 3.528,0 6.045,-1.09 7.893,-2.932 2.434,-2.507 3.439,-6.357 3.439,-10.627 H 0.584 c 0,3.262 -0.67,6.614 -2.688,8.618 -1.171,1.171 -2.935,1.925 -5.287,1.925 -2.431,0 -4.365,-0.754 -5.621,-2.09 -2.687,-2.931 -3.189,-5.525 -3.189,-25.359 0,-19.834 0.502,-22.428 3.189,-25.359 1.256,-1.338 3.19,-2.09 5.621,-2.09 2.352,0 4.116,0.752 5.287,1.924 2.018,2.009 2.688,5.357 2.688,8.619 H 3.941 C 3.941,6.527 2.766,2.428 0,0" style="fill:#003594;fill-opacity:1;fill-rule:nonzero;stroke:none" id="path46"/></g><path d="m 410.01,261.93 h 3.359 v -59.586 h -3.359 z" style="fill:#003594;fill-opacity:1;fill-rule:nonzero;stroke:none" id="path48"/><g id="g50" transform="translate(428.8084,258.9187)"><path d="m 0,0 v -25.275 h 13.766 v -3.012 H 0 V -56.574 H -3.357 V 3.012 h 19.306 l 0,-3.012 z" style="fill:#003594;fill-opacity:1;fill-rule:nonzero;stroke:none" id="path52"/></g><path d="m 454.656,261.93 h 3.357 v -59.586 h -3.357 z" style="fill:#003594;fill-opacity:1;fill-rule:nonzero;stroke:none" id="path54"/><g id="g56" transform="translate(488.4803,204.1843)"><path d="m 0,0 c -1.764,-1.592 -4.201,-2.51 -7.391,-2.51 -3.273,0 -6.125,1.004 -7.972,2.928 -3.524,3.602 -4.197,6.947 -4.197,27.535 0,20.586 0.673,23.938 4.197,27.533 1.847,1.926 4.699,2.932 7.972,2.932 3.53,0 6.045,-1.09 7.895,-2.932 2.432,-2.507 3.439,-6.357 3.439,-10.627 H 0.584 c 0,3.262 -0.668,6.614 -2.686,8.618 -1.171,1.171 -2.935,1.925 -5.289,1.925 -2.431,0 -4.365,-0.754 -5.621,-2.09 -2.685,-2.931 -3.189,-5.525 -3.189,-25.359 0,-19.834 0.504,-22.428 3.189,-25.359 1.256,-1.338 3.19,-2.09 5.621,-2.09 2.354,0 4.118,0.752 5.289,1.924 2.018,2.009 2.686,5.357 2.686,8.619 H 3.943 C 3.943,6.527 2.768,2.428 0,0" style="fill:#003594;fill-opacity:1;fill-rule:nonzero;stroke:none" id="path58"/></g><g id="g60" transform="translate(336.9199,126.0281)"><path d="m 0,0 c -1.93,-1.926 -4.615,-2.932 -8.479,-2.932 -3.607,0 -6.462,0.836 -8.56,2.932 -2.602,2.678 -3.444,5.436 -3.444,12.049 h 3.358 c 0,-5.104 0.588,-7.699 2.602,-9.705 1.345,-1.342 3.359,-2.18 6.044,-2.18 2.938,0 4.87,0.838 6.131,2.18 2.262,2.258 2.686,5.185 2.686,10.373 0,7.869 -1.26,10.883 -6.549,13.056 l -6.129,2.514 c -6.125,2.508 -7.721,5.94 -7.721,14.813 0,5.021 1.258,8.955 3.774,11.464 2.017,2.01 4.705,3.098 8.228,3.098 3.528,0 6.379,-1.088 8.397,-3.098 2.851,-2.927 3.355,-6.109 3.355,-11.046 H 0.338 c 0,4.099 -0.588,6.613 -2.522,8.787 -1.339,1.506 -3.273,2.343 -5.961,2.343 -2.515,0 -4.279,-0.752 -5.621,-2.009 -2.097,-2.01 -2.939,-5.44 -2.939,-9.455 0,-7.536 1.006,-9.875 6.967,-12.303 l 6.129,-2.51 C 2.602,25.857 3.693,20.92 3.693,12.803 3.693,6.443 2.602,2.678 0,0" style="fill:#005cb9;fill-opacity:1;fill-rule:nonzero;stroke:none" id="path62"/></g><g id="g64" transform="translate(359.4921,180.1726)"><path d="M 0,0 V -56.574 H -3.359 V 0 h -9.987 V 3.014 H 9.988 V 0 Z" style="fill:#005cb9;fill-opacity:1;fill-rule:nonzero;stroke:none" id="path66"/></g><g id="g68" transform="translate(388.1933,180.1726)"><path d="M 0,0 H -7.469 V -26.111 H 0 c 6.295,0 8.478,4.353 8.478,13.056 C 8.478,-4.348 6.295,0 0,0 m 10.072,-56.574 -8.98,27.535 h -8.561 v -27.535 h -3.359 V 3.014 h 10.576 c 5.875,0 12.09,-1.592 12.09,-16.069 0,-9.875 -2.856,-14.06 -7.557,-15.48 l 9.485,-28.039 z" style="fill:#005cb9;fill-opacity:1;fill-rule:nonzero;stroke:none" id="path70"/></g><g id="g72" transform="translate(420.6699,176.323)"><path d="M 0,0 -6.295,-31.803 H 6.379 Z M 10.576,-52.725 6.967,-34.814 H -6.967 l -3.523,-17.911 h -3.698 L -1.346,6.863 H 1.68 l 12.587,-59.588 z" style="fill:#005cb9;fill-opacity:1;fill-rule:nonzero;stroke:none" id="path74"/></g><g id="g76" transform="translate(449.2031,180.1726)"><path d="M 0,0 V -56.574 H -3.359 V 0 h -9.987 V 3.014 H 9.988 V 0 Z" style="fill:#005cb9;fill-opacity:1;fill-rule:nonzero;stroke:none" id="path78"/></g><g id="g80" transform="translate(467.076,123.5984)"><path d="M 0,0 V 59.588 H 19.307 V 56.574 H 3.357 V 31.301 H 17.123 V 28.287 H 3.357 V 3.014 h 15.95 l 0,-3.014 z" style="fill:#005cb9;fill-opacity:1;fill-rule:nonzero;stroke:none" id="path82"/></g><g id="g84" transform="translate(507.6093,122.9304)"><path d="m 0,0 c -3.273,0 -6.125,1.002 -7.973,2.928 -3.525,3.599 -4.197,6.947 -4.197,27.535 0,20.586 0.672,23.937 4.197,27.533 1.848,1.926 4.7,2.928 7.973,2.928 3.529,0 6.131,-1.168 7.975,-3.012 2.351,-2.51 3.359,-6.189 3.359,-10.543 H 7.975 c 0,5.272 -1.596,10.543 -7.975,10.543 -2.432,0 -4.365,-0.754 -5.621,-2.09 C -8.307,52.895 -8.81,50.297 -8.81,30.463 -8.81,10.627 -8.307,8.035 -5.621,5.102 -4.365,3.766 -2.432,3.012 0,3.012 c 4.365,0 7.975,3.181 7.975,9.371 V 28.955 H 0 v 3.014 H 11.334 V 12.219 C 11.334,4.016 5.795,0 0,0" style="fill:#005cb9;fill-opacity:1;fill-rule:nonzero;stroke:none" id="path86"/></g><path d="m 529.848,183.186 h 3.356 v -59.588 h -3.356 z" style="fill:#005cb9;fill-opacity:1;fill-rule:nonzero;stroke:none" id="path88"/><g id="g90" transform="translate(545.2889,123.5984)"><path d="M 0,0 V 59.588 H 19.307 V 56.574 H 3.356 V 31.301 H 17.123 V 28.287 H 3.356 V 3.014 H 19.307 V 0 Z" style="fill:#005cb9;fill-opacity:1;fill-rule:nonzero;stroke:none" id="path92"/></g><g id="g94" transform="translate(592.871,126.0281)"><path d="m 0,0 c -1.93,-1.926 -4.615,-2.932 -8.479,-2.932 -3.607,0 -6.462,0.836 -8.56,2.932 -2.602,2.678 -3.443,5.436 -3.443,12.049 h 3.357 c 0,-5.104 0.588,-7.699 2.602,-9.705 1.345,-1.342 3.359,-2.18 6.044,-2.18 2.938,0 4.87,0.838 6.131,2.18 2.264,2.258 2.686,5.185 2.686,10.373 0,7.869 -1.26,10.883 -6.549,13.056 l -6.129,2.514 c -6.125,2.508 -7.724,5.94 -7.724,14.813 0,5.021 1.261,8.955 3.777,11.464 2.017,2.01 4.705,3.098 8.228,3.098 3.528,0 6.379,-1.088 8.397,-3.098 2.851,-2.927 3.355,-6.109 3.355,-11.046 H 0.338 c 0,4.099 -0.588,6.613 -2.522,8.787 -1.339,1.506 -3.273,2.343 -5.959,2.343 -2.517,0 -4.281,-0.752 -5.623,-2.009 -2.097,-2.01 -2.939,-5.44 -2.939,-9.455 0,-7.536 1.006,-9.875 6.967,-12.303 l 6.129,-2.51 C 2.602,25.857 3.693,20.92 3.693,12.803 3.693,6.443 2.602,2.678 0,0" style="fill:#005cb9;fill-opacity:1;fill-rule:nonzero;stroke:none" id="path96"/></g><g id="g98" transform="translate(330.037,102.0203)"><path d="m 0,0 c -5.457,0 -7.555,-4.771 -7.555,-8.453 0,-3.684 1.26,-5.943 7.051,-14.143 5.039,4.768 8.059,8.2 8.059,14.563 C 7.555,-3.35 4.449,0 0,0 m -1.262,-27.199 c -6.293,-6.03 -9.234,-10.547 -9.234,-16.155 0,-6.023 3.443,-11.464 9.992,-11.464 5.039,0 8.647,3.515 12.256,8.119 z m 19.981,-29.963 -5.119,7.701 c -3.862,-4.937 -7.391,-8.369 -14.438,-8.369 -7.051,0 -13.012,5.187 -13.012,14.059 0,7.451 3.274,12.302 10.911,19.082 -6.379,9.041 -7.975,11.464 -7.975,16.152 0,5.441 3.273,11.465 10.914,11.465 7.137,0 10.914,-4.434 10.914,-10.797 0,-7.027 -2.601,-10.711 -9.738,-17.24 l 12.508,-18.662 c 2.347,3.681 4.197,10.044 4.531,15.146 h 3.359 c -0.588,-6.863 -2.601,-13.221 -5.961,-17.994 l 7.053,-10.543 z" style="fill:#3e8ede;fill-opacity:1;fill-rule:nonzero;stroke:none" id="path100"/></g><g id="g102" transform="translate(384.5019,97.5828)"><path d="M 0,0 -6.295,-31.803 H 6.379 Z M 10.574,-52.725 6.967,-34.814 H -6.969 l -3.527,-17.911 H -14.19 L -1.346,6.863 h 3.024 l 12.59,-59.588 z" style="fill:#3e8ede;fill-opacity:1;fill-rule:nonzero;stroke:none" id="path104"/></g><g id="g106" transform="translate(424.0253,47.2859)"><path d="m 0,0 c -1.93,-1.924 -4.615,-2.932 -8.479,-2.932 -3.607,0 -6.462,0.838 -8.56,2.932 -2.604,2.68 -3.443,5.437 -3.443,12.051 h 3.357 c 0,-5.104 0.588,-7.701 2.602,-9.707 1.345,-1.34 3.359,-2.178 6.044,-2.178 2.936,0 4.87,0.838 6.129,2.178 2.264,2.26 2.688,5.187 2.688,10.375 0,7.869 -1.262,10.881 -6.549,13.056 l -6.129,2.514 c -6.125,2.508 -7.724,5.94 -7.724,14.811 0,5.023 1.259,8.957 3.777,11.466 2.017,2.01 4.703,3.096 8.228,3.096 3.528,0 6.379,-1.086 8.397,-3.096 C 3.189,51.639 3.691,48.457 3.691,43.52 H 0.338 c 0,4.099 -0.588,6.613 -2.522,8.787 -1.341,1.506 -3.273,2.343 -5.961,2.343 -2.515,0 -4.281,-0.753 -5.621,-2.009 -2.097,-2.01 -2.939,-5.442 -2.939,-9.455 0,-7.536 1.006,-9.875 6.967,-12.305 l 6.129,-2.508 c 6.211,-2.514 7.3,-7.451 7.3,-15.57 C 3.691,6.445 2.602,2.68 0,0" style="fill:#3e8ede;fill-opacity:1;fill-rule:nonzero;stroke:none" id="path108"/></g><g id="g110" transform="translate(455.916,47.2859)"><path d="m 0,0 c -1.93,-1.924 -4.615,-2.932 -8.477,-2.932 -3.609,0 -6.464,0.838 -8.562,2.932 -2.602,2.68 -3.444,5.437 -3.444,12.051 h 3.36 c 0,-5.104 0.588,-7.701 2.601,-9.707 1.344,-1.34 3.358,-2.178 6.045,-2.178 2.936,0 4.869,0.838 6.129,2.178 2.264,2.26 2.686,5.187 2.686,10.375 0,7.869 -1.26,10.881 -6.547,13.056 l -6.131,2.514 c -6.125,2.508 -7.719,5.94 -7.719,14.811 0,5.023 1.256,8.957 3.774,11.466 2.017,2.01 4.703,3.096 8.226,3.096 3.528,0 6.379,-1.086 8.397,-3.096 C 3.189,51.639 3.693,48.457 3.693,43.52 H 0.338 c 0,4.099 -0.588,6.613 -2.52,8.787 -1.341,1.506 -3.275,2.343 -5.961,2.343 -2.517,0 -4.281,-0.753 -5.623,-2.009 -2.097,-2.01 -2.939,-5.442 -2.939,-9.455 0,-7.536 1.008,-9.875 6.967,-12.305 l 6.13,-2.508 C 2.602,25.859 3.693,20.922 3.693,12.803 3.693,6.445 2.602,2.68 0,0" style="fill:#3e8ede;fill-opacity:1;fill-rule:nonzero;stroke:none" id="path112"/></g><g id="g114" transform="translate(469.7578,44.8582)"><path d="M 0,0 V 59.588 H 19.307 V 56.574 H 3.359 V 31.301 H 17.123 V 28.287 H 3.359 V 3.012 H 19.307 V 0 Z" style="fill:#3e8ede;fill-opacity:1;fill-rule:nonzero;stroke:none" id="path116"/></g><g id="g118" transform="translate(517.3436,47.2859)"><path d="m 0,0 c -1.93,-1.924 -4.615,-2.932 -8.477,-2.932 -3.609,0 -6.464,0.838 -8.562,2.932 -2.602,2.68 -3.443,5.437 -3.443,12.051 h 3.359 c 0,-5.104 0.588,-7.701 2.602,-9.707 1.343,-1.34 3.357,-2.178 6.044,-2.178 2.936,0 4.87,0.838 6.129,2.178 2.264,2.26 2.686,5.187 2.686,10.375 0,7.869 -1.26,10.881 -6.547,13.056 l -6.131,2.514 c -6.125,2.508 -7.724,5.94 -7.724,14.811 0,5.023 1.261,8.957 3.779,11.466 2.017,2.01 4.703,3.096 8.226,3.096 3.528,0 6.379,-1.086 8.397,-3.096 C 3.189,51.639 3.693,48.457 3.693,43.52 H 0.338 c 0,4.099 -0.588,6.613 -2.522,8.787 -1.339,1.506 -3.273,2.343 -5.959,2.343 -2.517,0 -4.281,-0.753 -5.623,-2.009 -2.097,-2.01 -2.939,-5.442 -2.939,-9.455 0,-7.536 1.008,-9.875 6.967,-12.305 l 6.131,-2.508 c 6.209,-2.514 7.3,-7.451 7.3,-15.57 C 3.693,6.445 2.602,2.68 0,0" style="fill:#3e8ede;fill-opacity:1;fill-rule:nonzero;stroke:none" id="path120"/></g><g id="g122" transform="translate(549.2324,47.2859)"><path d="m 0,0 c -1.93,-1.924 -4.615,-2.932 -8.479,-2.932 -3.607,0 -6.462,0.838 -8.562,2.932 -2.602,2.68 -3.443,5.437 -3.443,12.051 h 3.359 c 0,-5.104 0.588,-7.701 2.602,-9.707 1.345,-1.34 3.359,-2.178 6.044,-2.178 2.936,0 4.87,0.838 6.129,2.178 2.264,2.26 2.688,5.187 2.688,10.375 0,7.869 -1.262,10.881 -6.549,13.056 l -6.129,2.514 c -6.125,2.508 -7.725,5.94 -7.725,14.811 0,5.023 1.26,8.957 3.778,11.466 2.017,2.01 4.703,3.096 8.228,3.096 3.528,0 6.379,-1.086 8.397,-3.096 C 3.189,51.639 3.691,48.457 3.691,43.52 H 0.338 c 0,4.099 -0.588,6.613 -2.522,8.787 -1.341,1.506 -3.273,2.343 -5.961,2.343 -2.515,0 -4.281,-0.753 -5.621,-2.009 -2.097,-2.01 -2.939,-5.442 -2.939,-9.455 0,-7.536 1.006,-9.875 6.967,-12.305 l 6.129,-2.508 c 6.211,-2.514 7.3,-7.451 7.3,-15.57 C 3.691,6.445 2.602,2.68 0,0" style="fill:#3e8ede;fill-opacity:1;fill-rule:nonzero;stroke:none" id="path124"/></g><g id="g126" transform="translate(593.1287,44.8582)"><path d="M 0,0 V 51.807 L -11.922,17.824 h -3.019 L -26.693,50.635 V 0 h -3.358 v 59.588 h 3.692 l 13.011,-36.406 13.01,36.406 H 3.358 L 3.358,0 Z" style="fill:#3e8ede;fill-opacity:1;fill-rule:nonzero;stroke:none" id="path128"/></g><g id="g130" transform="translate(608.5604,44.8582)"><path d="M 0,0 V 59.588 H 19.307 V 56.574 H 3.359 V 31.301 H 17.125 V 28.287 H 3.359 V 3.012 h 15.948 l 0,-3.012 z" style="fill:#3e8ede;fill-opacity:1;fill-rule:nonzero;stroke:none" id="path132"/></g><g id="g134" transform="translate(659.0859,44.8582)"><path d="M 0,0 -17.631,50.381 V 0 h -3.353 v 59.588 h 3.691 L 0.334,9.207 V 59.588 H 3.693 L 3.693,0 Z" style="fill:#3e8ede;fill-opacity:1;fill-rule:nonzero;stroke:none" id="path136"/></g><g id="g138" transform="translate(684.0078,101.4324)"><path d="M 0,0 V -56.574 H -3.359 V 0 h -9.989 V 3.014 H 9.986 L 9.986,0 Z" style="fill:#3e8ede;fill-opacity:1;fill-rule:nonzero;stroke:none" id="path140"/></g><g id="g142" transform="translate(719.0839,47.2859)"><path d="m 0,0 c -1.928,-1.924 -4.615,-2.932 -8.477,-2.932 -3.609,0 -6.464,0.838 -8.562,2.932 -2.602,2.68 -3.443,5.437 -3.443,12.051 h 3.359 c 0,-5.104 0.588,-7.701 2.602,-9.707 1.345,-1.34 3.359,-2.178 6.044,-2.178 2.936,0 4.87,0.838 6.129,2.178 2.264,2.26 2.686,5.187 2.686,10.375 0,7.869 -1.26,10.881 -6.547,13.056 l -6.131,2.514 c -6.125,2.508 -7.722,5.94 -7.722,14.811 0,5.023 1.259,8.957 3.777,11.466 2.017,2.01 4.703,3.096 8.226,3.096 3.53,0 6.379,-1.086 8.397,-3.096 C 3.19,51.639 3.693,48.457 3.693,43.52 H 0.338 c 0,4.099 -0.588,6.613 -2.52,8.787 -1.341,1.506 -3.275,2.343 -5.961,2.343 -2.517,0 -4.281,-0.753 -5.621,-2.009 -2.099,-2.01 -2.941,-5.442 -2.941,-9.455 0,-7.536 1.008,-9.875 6.967,-12.305 l 6.131,-2.508 c 6.209,-2.514 7.3,-7.451 7.3,-15.57 C 3.693,6.445 2.602,2.68 0,0" style="fill:#3e8ede;fill-opacity:1;fill-rule:nonzero;stroke:none" id="path144"/></g></g></g></g></svg>